<?xml version="1.0" encoding="UTF-8" standalone="no"?>
<!DOCTYPE svg PUBLIC "-//W3C//DTD SVG 1.1//EN"
 "http://www.w3.org/Graphics/SVG/1.1/DTD/svg11.dtd">
<!-- Generated by graphviz version 2.38.0 (20140413.2041)
 -->
<!-- Title: %3 Pages: 1 -->
<svg width="430pt" height="499pt"
 viewBox="0.00 0.00 430.39 499.39" xmlns="http://www.w3.org/2000/svg" xmlns:xlink="http://www.w3.org/1999/xlink">
<g id="graph0" class="graph" transform="scale(1 1) rotate(0) translate(4 495.394)">
<title>%3</title>
<polygon fill="white" stroke="none" points="-4,4 -4,-495.394 426.394,-495.394 426.394,4 -4,4"/>
<!-- fake -->
<g id="node1" class="node"><title>fake</title>
</g>
<!-- [s_init,0] -->
<g id="node8" class="node"><title>[s_init,0]</title>
<ellipse fill="none" stroke="black" cx="177.197" cy="-400.394" rx="42.7926" ry="18"/>
<text text-anchor="middle" x="177.197" y="-396.694" font-family="Times,serif" font-size="14.00">[s_init,0]</text>
</g>
<!-- fake&#45;&gt;[s_init,0] -->
<g id="edge1" class="edge"><title>fake&#45;&gt;[s_init,0]</title>
<path fill="none" stroke="black" stroke-width="2" d="M177.197,-455.207C177.197,-447.184 177.197,-437.442 177.197,-428.464"/>
<polygon fill="black" stroke="black" stroke-width="2" points="180.697,-428.423 177.197,-418.423 173.697,-428.423 180.697,-428.423"/>
</g>
<!-- [s0,0] -->
<g id="node2" class="node"><title>[s0,0]</title>
<ellipse fill="none" stroke="black" cx="177.197" cy="-313.394" rx="31.3957" ry="18"/>
<text text-anchor="middle" x="177.197" y="-309.694" font-family="Times,serif" font-size="11.00">[s0,0]</text>
</g>
<!-- [s0,0]&#45;&gt;[s0,0] -->
<g id="edge11" class="edge"><title>[s0,0]&#45;&gt;[s0,0]</title>
<path fill="none" stroke="black" d="M205.509,-321.221C216.864,-321.664 226.394,-319.055 226.394,-313.394 226.394,-309.592 222.092,-307.166 215.825,-306.118"/>
<polygon fill="black" stroke="black" points="215.681,-302.605 205.509,-305.568 215.308,-309.595 215.681,-302.605"/>
<text text-anchor="middle" x="246.394" y="-309.694" font-family="Times,serif" font-size="11.00">wait,s0</text>
</g>
<!-- [s5,1] -->
<g id="node5" class="node"><title>[s5,1]</title>
<ellipse fill="none" stroke="black" cx="108.197" cy="-226.394" rx="31.3957" ry="18"/>
<text text-anchor="middle" x="108.197" y="-222.694" font-family="Times,serif" font-size="14.00">[s5,1]</text>
</g>
<!-- [s0,0]&#45;&gt;[s5,1] -->
<g id="edge16" class="edge"><title>[s0,0]&#45;&gt;[s5,1]</title>
<path fill="none" stroke="black" d="M157.185,-299.366C149.034,-293.37 139.959,-285.735 133.197,-277.394 127.399,-270.242 122.464,-261.524 118.55,-253.382"/>
<polygon fill="black" stroke="black" points="121.724,-251.906 114.433,-244.219 115.339,-254.775 121.724,-251.906"/>
<text text-anchor="middle" x="168.697" y="-266.194" font-family="Times,serif" font-size="11.00">mov_hw1,s5</text>
</g>
<!-- [s6,0] -->
<g id="node7" class="node"><title>[s6,0]</title>
<ellipse fill="none" stroke="black" cx="246.197" cy="-226.394" rx="31.3957" ry="18"/>
<text text-anchor="middle" x="246.197" y="-222.694" font-family="Times,serif" font-size="14.00">[s6,0]</text>
</g>
<!-- [s0,0]&#45;&gt;[s6,0] -->
<g id="edge12" class="edge"><title>[s0,0]&#45;&gt;[s6,0]</title>
<path fill="none" stroke="black" d="M189.853,-296.804C200.26,-283.984 215.173,-265.613 227.042,-250.991"/>
<polygon fill="black" stroke="black" points="230.037,-252.856 233.622,-242.886 224.602,-248.444 230.037,-252.856"/>
<text text-anchor="middle" x="253.697" y="-266.194" font-family="Times,serif" font-size="11.00">mov_hw2,s6</text>
</g>
<!-- [s1,1] -->
<g id="node3" class="node"><title>[s1,1]</title>
<ellipse fill="none" stroke="black" cx="31.1972" cy="-139.394" rx="31.3957" ry="18"/>
<text text-anchor="middle" x="31.1972" y="-135.694" font-family="Times,serif" font-size="14.00">[s1,1]</text>
</g>
<!-- [s1,1]&#45;&gt;[s1,1] -->
<g id="edge5" class="edge"><title>[s1,1]&#45;&gt;[s1,1]</title>
<path fill="none" stroke="black" d="M59.5087,-147.221C70.8637,-147.664 80.3945,-145.055 80.3945,-139.394 80.3945,-135.592 76.0921,-133.166 69.8248,-132.118"/>
<polygon fill="black" stroke="black" points="69.6809,-128.605 59.5087,-131.568 69.308,-135.595 69.6809,-128.605"/>
<text text-anchor="middle" x="100.394" y="-135.694" font-family="Times,serif" font-size="11.00">wait,s1</text>
</g>
<!-- [s2,0] -->
<g id="node4" class="node"><title>[s2,0]</title>
<ellipse fill="none" stroke="black" cx="333.197" cy="-139.394" rx="31.3957" ry="18"/>
<text text-anchor="middle" x="333.197" y="-135.694" font-family="Times,serif" font-size="14.00">[s2,0]</text>
</g>
<!-- [s2,0]&#45;&gt;[s2,0] -->
<g id="edge6" class="edge"><title>[s2,0]&#45;&gt;[s2,0]</title>
<path fill="none" stroke="black" d="M361.509,-147.221C372.864,-147.664 382.394,-145.055 382.394,-139.394 382.394,-135.592 378.092,-133.166 371.825,-132.118"/>
<polygon fill="black" stroke="black" points="371.681,-128.605 361.509,-131.568 371.308,-135.595 371.681,-128.605"/>
<text text-anchor="middle" x="402.394" y="-135.694" font-family="Times,serif" font-size="11.00">wait,s2</text>
</g>
<!-- [s5,1]&#45;&gt;[s1,1] -->
<g id="edge4" class="edge"><title>[s5,1]&#45;&gt;[s1,1]</title>
<path fill="none" stroke="black" d="M80.9141,-217.459C66.9843,-212.032 50.9597,-203.414 41.1972,-190.394 36.323,-183.894 33.6584,-175.628 32.2456,-167.698"/>
<polygon fill="black" stroke="black" points="35.7049,-167.15 31.0288,-157.643 28.7556,-167.991 35.7049,-167.15"/>
<text text-anchor="middle" x="76.6972" y="-179.194" font-family="Times,serif" font-size="11.00">mov_w1h,s1</text>
</g>
<!-- [s5,1]&#45;&gt;[s5,1] -->
<g id="edge9" class="edge"><title>[s5,1]&#45;&gt;[s5,1]</title>
<path fill="none" stroke="black" d="M136.509,-234.221C147.864,-234.664 157.394,-232.055 157.394,-226.394 157.394,-222.592 153.092,-220.166 146.825,-219.118"/>
<polygon fill="black" stroke="black" points="146.681,-215.605 136.509,-218.568 146.308,-222.595 146.681,-215.605"/>
<text text-anchor="middle" x="177.394" y="-222.694" font-family="Times,serif" font-size="11.00">wait,s5</text>
</g>
<!-- [s3,1] -->
<g id="node9" class="node"><title>[s3,1]</title>
<ellipse fill="none" stroke="black" cx="182.197" cy="-139.394" rx="31.3957" ry="18"/>
<text text-anchor="middle" x="182.197" y="-135.694" font-family="Times,serif" font-size="14.00">[s3,1]</text>
</g>
<!-- [s5,1]&#45;&gt;[s3,1] -->
<g id="edge7" class="edge"><title>[s5,1]&#45;&gt;[s3,1]</title>
<path fill="none" stroke="black" d="M110.572,-208.21C112.717,-197.832 116.738,-184.834 124.197,-175.394 130.651,-167.228 139.574,-160.525 148.488,-155.25"/>
<polygon fill="black" stroke="black" points="150.197,-158.304 157.307,-150.449 146.85,-152.156 150.197,-158.304"/>
<text text-anchor="middle" x="164.697" y="-179.194" font-family="Times,serif" font-size="11.00">mov_w1w2,s3</text>
</g>
<!-- [s4,2] -->
<g id="node6" class="node"><title>[s4,2]</title>
<ellipse fill="none" stroke="black" cx="182.197" cy="-35.1972" rx="31.373" ry="31.373"/>
<ellipse fill="none" stroke="black" cx="182.197" cy="-35.1972" rx="35.3956" ry="35.3956"/>
<text text-anchor="middle" x="182.197" y="-31.4972" font-family="Times,serif" font-size="14.00">[s4,2]</text>
</g>
<!-- [s4,2]&#45;&gt;[s4,2] -->
<g id="edge13" class="edge"><title>[s4,2]&#45;&gt;[s4,2]</title>
<path fill="none" stroke="black" d="M215.705,-46.4465C226.666,-46.3884 235.394,-42.6386 235.394,-35.1972 235.394,-30.3138 231.636,-27.0202 225.953,-25.3165"/>
<polygon fill="black" stroke="black" points="226.08,-21.8025 215.705,-23.9479 225.154,-28.7409 226.08,-21.8025"/>
<text text-anchor="middle" x="255.394" y="-31.4972" font-family="Times,serif" font-size="11.00">wait,s4</text>
</g>
<!-- [s6,0]&#45;&gt;[s2,0] -->
<g id="edge2" class="edge"><title>[s6,0]&#45;&gt;[s2,0]</title>
<path fill="none" stroke="black" d="M269.627,-214.338C280.694,-208.33 293.558,-200.133 303.197,-190.394 310.131,-183.39 316.129,-174.481 320.902,-166.13"/>
<polygon fill="black" stroke="black" points="324.118,-167.537 325.753,-157.069 317.947,-164.233 324.118,-167.537"/>
<text text-anchor="middle" x="349.697" y="-179.194" font-family="Times,serif" font-size="11.00">mov_w2h,s2</text>
</g>
<!-- [s6,0]&#45;&gt;[s6,0] -->
<g id="edge15" class="edge"><title>[s6,0]&#45;&gt;[s6,0]</title>
<path fill="none" stroke="black" d="M274.509,-234.221C285.864,-234.664 295.394,-232.055 295.394,-226.394 295.394,-222.592 291.092,-220.166 284.825,-219.118"/>
<polygon fill="black" stroke="black" points="284.681,-215.605 274.509,-218.568 284.308,-222.595 284.681,-215.605"/>
<text text-anchor="middle" x="315.394" y="-222.694" font-family="Times,serif" font-size="11.00">wait,s6</text>
</g>
<!-- [s6,0]&#45;&gt;[s3,1] -->
<g id="edge10" class="edge"><title>[s6,0]&#45;&gt;[s3,1]</title>
<path fill="none" stroke="black" d="M234.159,-209.407C224.594,-196.703 211.068,-178.738 200.213,-164.322"/>
<polygon fill="black" stroke="black" points="202.992,-162.194 194.181,-156.311 197.4,-166.405 202.992,-162.194"/>
<text text-anchor="middle" x="258.697" y="-179.194" font-family="Times,serif" font-size="11.00">mov_w2w1,s3</text>
</g>
<!-- [s_init,0]&#45;&gt;[s0,0] -->
<g id="edge8" class="edge"><title>[s_init,0]&#45;&gt;[s0,0]</title>
<path fill="none" stroke="black" d="M177.197,-382.193C177.197,-370.557 177.197,-354.942 177.197,-341.631"/>
<polygon fill="black" stroke="black" points="180.697,-341.57 177.197,-331.57 173.697,-341.57 180.697,-341.57"/>
<text text-anchor="middle" x="197.197" y="-353.194" font-family="Times,serif" font-size="11.00">start,s0</text>
</g>
<!-- [s3,1]&#45;&gt;[s4,2] -->
<g id="edge14" class="edge"><title>[s3,1]&#45;&gt;[s4,2]</title>
<path fill="none" stroke="black" d="M182.197,-121.058C182.197,-109.968 182.197,-95.0385 182.197,-80.7939"/>
<polygon fill="black" stroke="black" points="185.697,-80.6073 182.197,-70.6074 178.697,-80.6074 185.697,-80.6073"/>
<text text-anchor="middle" x="221.197" y="-92.1945" font-family="Times,serif" font-size="11.00">mov_w12h,s4</text>
</g>
<!-- [s3,1]&#45;&gt;[s3,1] -->
<g id="edge3" class="edge"><title>[s3,1]&#45;&gt;[s3,1]</title>
<path fill="none" stroke="black" d="M210.509,-147.221C221.864,-147.664 231.394,-145.055 231.394,-139.394 231.394,-135.592 227.092,-133.166 220.825,-132.118"/>
<polygon fill="black" stroke="black" points="220.681,-128.605 210.509,-131.568 220.308,-135.595 220.681,-128.605"/>
<text text-anchor="middle" x="251.394" y="-135.694" font-family="Times,serif" font-size="11.00">wait,s3</text>
</g>
</g>
</svg>
