<?xml version="1.0" encoding="UTF-8" standalone="no"?>
<!DOCTYPE svg PUBLIC "-//W3C//DTD SVG 1.1//EN"
 "http://www.w3.org/Graphics/SVG/1.1/DTD/svg11.dtd">
<!-- Generated by graphviz version 2.38.0 (20140413.2041)
 -->
<!-- Title: %3 Pages: 1 -->
<svg width="430pt" height="499pt"
 viewBox="0.00 0.00 430.39 499.39" xmlns="http://www.w3.org/2000/svg" xmlns:xlink="http://www.w3.org/1999/xlink">
<g id="graph0" class="graph" transform="scale(1 1) rotate(0) translate(4 495.394)">
<title>%3</title>
<polygon fill="white" stroke="none" points="-4,4 -4,-495.394 426.394,-495.394 426.394,4 -4,4"/>
<!-- fake -->
<g id="node1" class="node"><title>fake</title>
</g>
<!-- [s_init,0] -->
<g id="node4" class="node"><title>[s_init,0]</title>
<ellipse fill="none" stroke="black" cx="182.197" cy="-400.394" rx="42.7926" ry="18"/>
<text text-anchor="middle" x="182.197" y="-396.694" font-family="Times,serif" font-size="14.00">[s_init,0]</text>
</g>
<!-- fake&#45;&gt;[s_init,0] -->
<g id="edge1" class="edge"><title>fake&#45;&gt;[s_init,0]</title>
<path fill="none" stroke="black" stroke-width="2" d="M182.197,-455.207C182.197,-447.184 182.197,-437.442 182.197,-428.464"/>
<polygon fill="black" stroke="black" stroke-width="2" points="185.697,-428.423 182.197,-418.423 178.697,-428.423 185.697,-428.423"/>
</g>
<!-- [s2,0] -->
<g id="node2" class="node"><title>[s2,0]</title>
<ellipse fill="none" stroke="black" cx="333.197" cy="-139.394" rx="31.3957" ry="18"/>
<text text-anchor="middle" x="333.197" y="-135.694" font-family="Times,serif" font-size="14.00">[s2,0]</text>
</g>
<!-- [s2,0]&#45;&gt;[s2,0] -->
<g id="edge8" class="edge"><title>[s2,0]&#45;&gt;[s2,0]</title>
<path fill="none" stroke="black" d="M361.509,-147.221C372.864,-147.664 382.394,-145.055 382.394,-139.394 382.394,-135.592 378.092,-133.166 371.825,-132.118"/>
<polygon fill="black" stroke="black" points="371.681,-128.605 361.509,-131.568 371.308,-135.595 371.681,-128.605"/>
<text text-anchor="middle" x="402.394" y="-135.694" font-family="Times,serif" font-size="14.00">wait,s2</text>
</g>
<!-- [s5,0] -->
<g id="node3" class="node"><title>[s5,0]</title>
<ellipse fill="none" stroke="black" cx="108.197" cy="-226.394" rx="31.3957" ry="18"/>
<text text-anchor="middle" x="108.197" y="-222.694" font-family="Times,serif" font-size="14.00">[s5,0]</text>
</g>
<!-- [s5,0]&#45;&gt;[s5,0] -->
<g id="edge2" class="edge"><title>[s5,0]&#45;&gt;[s5,0]</title>
<path fill="none" stroke="black" d="M136.509,-234.221C147.864,-234.664 157.394,-232.055 157.394,-226.394 157.394,-222.592 153.092,-220.166 146.825,-219.118"/>
<polygon fill="black" stroke="black" points="146.681,-215.605 136.509,-218.568 146.308,-222.595 146.681,-215.605"/>
<text text-anchor="middle" x="177.394" y="-222.694" font-family="Times,serif" font-size="14.00">wait,s5</text>
</g>
<!-- [s3,1] -->
<g id="node5" class="node"><title>[s3,1]</title>
<ellipse fill="none" stroke="black" cx="182.197" cy="-139.394" rx="31.3957" ry="18"/>
<text text-anchor="middle" x="182.197" y="-135.694" font-family="Times,serif" font-size="14.00">[s3,1]</text>
</g>
<!-- [s5,0]&#45;&gt;[s3,1] -->
<g id="edge4" class="edge"><title>[s5,0]&#45;&gt;[s3,1]</title>
<path fill="none" stroke="black" d="M110.161,-208.2C112.073,-197.819 115.83,-184.82 123.197,-175.394 129.743,-167.02 138.896,-160.23 148.042,-154.939"/>
<polygon fill="black" stroke="black" points="149.893,-157.919 157.09,-150.143 146.615,-151.734 149.893,-157.919"/>
<text text-anchor="middle" x="163.697" y="-179.194" font-family="Times,serif" font-size="14.00">mov_w1w2,s3</text>
</g>
<!-- [s1,0] -->
<g id="node8" class="node"><title>[s1,0]</title>
<ellipse fill="none" stroke="black" cx="31.1972" cy="-139.394" rx="31.3957" ry="18"/>
<text text-anchor="middle" x="31.1972" y="-135.694" font-family="Times,serif" font-size="14.00">[s1,0]</text>
</g>
<!-- [s5,0]&#45;&gt;[s1,0] -->
<g id="edge7" class="edge"><title>[s5,0]&#45;&gt;[s1,0]</title>
<path fill="none" stroke="black" d="M80.7546,-217.762C66.5096,-212.396 50.0658,-203.739 40.1972,-190.394 35.3838,-183.886 32.865,-175.617 31.6141,-167.687"/>
<polygon fill="black" stroke="black" points="35.0868,-167.239 30.6138,-157.634 28.1212,-167.932 35.0868,-167.239"/>
<text text-anchor="middle" x="75.6972" y="-179.194" font-family="Times,serif" font-size="14.00">mov_w1h,s1</text>
</g>
<!-- [s0,0] -->
<g id="node9" class="node"><title>[s0,0]</title>
<ellipse fill="none" stroke="black" cx="182.197" cy="-313.394" rx="31.3957" ry="18"/>
<text text-anchor="middle" x="182.197" y="-309.694" font-family="Times,serif" font-size="14.00">[s0,0]</text>
</g>
<!-- [s_init,0]&#45;&gt;[s0,0] -->
<g id="edge15" class="edge"><title>[s_init,0]&#45;&gt;[s0,0]</title>
<path fill="none" stroke="black" d="M182.197,-382.193C182.197,-370.557 182.197,-354.942 182.197,-341.631"/>
<polygon fill="black" stroke="black" points="185.697,-341.57 182.197,-331.57 178.697,-341.57 185.697,-341.57"/>
<text text-anchor="middle" x="202.197" y="-353.194" font-family="Times,serif" font-size="14.00">start,s0</text>
</g>
<!-- [s3,1]&#45;&gt;[s3,1] -->
<g id="edge11" class="edge"><title>[s3,1]&#45;&gt;[s3,1]</title>
<path fill="none" stroke="black" d="M210.509,-147.221C221.864,-147.664 231.394,-145.055 231.394,-139.394 231.394,-135.592 227.092,-133.166 220.825,-132.118"/>
<polygon fill="black" stroke="black" points="220.681,-128.605 210.509,-131.568 220.308,-135.595 220.681,-128.605"/>
<text text-anchor="middle" x="251.394" y="-135.694" font-family="Times,serif" font-size="14.00">wait,s3</text>
</g>
<!-- [s4,2] -->
<g id="node7" class="node"><title>[s4,2]</title>
<ellipse fill="none" stroke="black" cx="182.197" cy="-35.1972" rx="31.373" ry="31.373"/>
<ellipse fill="none" stroke="black" cx="182.197" cy="-35.1972" rx="35.3956" ry="35.3956"/>
<text text-anchor="middle" x="182.197" y="-31.4972" font-family="Times,serif" font-size="14.00">[s4,2]</text>
</g>
<!-- [s3,1]&#45;&gt;[s4,2] -->
<g id="edge16" class="edge"><title>[s3,1]&#45;&gt;[s4,2]</title>
<path fill="none" stroke="black" d="M182.197,-121.058C182.197,-109.968 182.197,-95.0385 182.197,-80.7939"/>
<polygon fill="black" stroke="black" points="185.697,-80.6073 182.197,-70.6074 178.697,-80.6074 185.697,-80.6073"/>
<text text-anchor="middle" x="221.197" y="-92.1945" font-family="Times,serif" font-size="14.00">mov_w12h,s4</text>
</g>
<!-- [s6,0] -->
<g id="node6" class="node"><title>[s6,0]</title>
<ellipse fill="none" stroke="black" cx="246.197" cy="-226.394" rx="31.3957" ry="18"/>
<text text-anchor="middle" x="246.197" y="-222.694" font-family="Times,serif" font-size="14.00">[s6,0]</text>
</g>
<!-- [s6,0]&#45;&gt;[s2,0] -->
<g id="edge13" class="edge"><title>[s6,0]&#45;&gt;[s2,0]</title>
<path fill="none" stroke="black" d="M269.424,-214.048C280.218,-208.024 292.729,-199.897 302.197,-190.394 309.291,-183.275 315.512,-174.24 320.483,-165.816"/>
<polygon fill="black" stroke="black" points="323.566,-167.473 325.368,-157.032 317.449,-164.07 323.566,-167.473"/>
<text text-anchor="middle" x="349.697" y="-179.194" font-family="Times,serif" font-size="14.00">mov_w2h,s2</text>
</g>
<!-- [s6,0]&#45;&gt;[s3,1] -->
<g id="edge12" class="edge"><title>[s6,0]&#45;&gt;[s3,1]</title>
<path fill="none" stroke="black" d="M234.159,-209.407C224.594,-196.703 211.068,-178.738 200.213,-164.322"/>
<polygon fill="black" stroke="black" points="202.992,-162.194 194.181,-156.311 197.4,-166.405 202.992,-162.194"/>
<text text-anchor="middle" x="257.697" y="-179.194" font-family="Times,serif" font-size="14.00">mov_w2w1,s3</text>
</g>
<!-- [s6,0]&#45;&gt;[s6,0] -->
<g id="edge14" class="edge"><title>[s6,0]&#45;&gt;[s6,0]</title>
<path fill="none" stroke="black" d="M274.509,-234.221C285.864,-234.664 295.394,-232.055 295.394,-226.394 295.394,-222.592 291.092,-220.166 284.825,-219.118"/>
<polygon fill="black" stroke="black" points="284.681,-215.605 274.509,-218.568 284.308,-222.595 284.681,-215.605"/>
<text text-anchor="middle" x="315.394" y="-222.694" font-family="Times,serif" font-size="14.00">wait,s6</text>
</g>
<!-- [s4,2]&#45;&gt;[s4,2] -->
<g id="edge5" class="edge"><title>[s4,2]&#45;&gt;[s4,2]</title>
<path fill="none" stroke="black" d="M215.705,-46.4465C226.666,-46.3884 235.394,-42.6386 235.394,-35.1972 235.394,-30.3138 231.636,-27.0202 225.953,-25.3165"/>
<polygon fill="black" stroke="black" points="226.08,-21.8025 215.705,-23.9479 225.154,-28.7409 226.08,-21.8025"/>
<text text-anchor="middle" x="255.394" y="-31.4972" font-family="Times,serif" font-size="14.00">wait,s4</text>
</g>
<!-- [s1,0]&#45;&gt;[s1,0] -->
<g id="edge6" class="edge"><title>[s1,0]&#45;&gt;[s1,0]</title>
<path fill="none" stroke="black" d="M59.5087,-147.221C70.8637,-147.664 80.3945,-145.055 80.3945,-139.394 80.3945,-135.592 76.0921,-133.166 69.8248,-132.118"/>
<polygon fill="black" stroke="black" points="69.6809,-128.605 59.5087,-131.568 69.308,-135.595 69.6809,-128.605"/>
<text text-anchor="middle" x="100.394" y="-135.694" font-family="Times,serif" font-size="14.00">wait,s1</text>
</g>
<!-- [s0,0]&#45;&gt;[s5,0] -->
<g id="edge10" class="edge"><title>[s0,0]&#45;&gt;[s5,0]</title>
<path fill="none" stroke="black" d="M161.388,-299.812C152.577,-293.791 142.65,-286.014 135.197,-277.394 129.076,-270.314 123.783,-261.615 119.546,-253.468"/>
<polygon fill="black" stroke="black" points="122.599,-251.744 115.07,-244.289 116.307,-254.812 122.599,-251.744"/>
<text text-anchor="middle" x="170.697" y="-266.194" font-family="Times,serif" font-size="14.00">mov_hw1,s5</text>
</g>
<!-- [s0,0]&#45;&gt;[s6,0] -->
<g id="edge9" class="edge"><title>[s0,0]&#45;&gt;[s6,0]</title>
<path fill="none" stroke="black" d="M194.235,-296.407C203.8,-283.703 217.327,-265.738 228.181,-251.322"/>
<polygon fill="black" stroke="black" points="230.994,-253.405 234.213,-243.311 225.402,-249.194 230.994,-253.405"/>
<text text-anchor="middle" x="254.697" y="-266.194" font-family="Times,serif" font-size="14.00">mov_hw2,s6</text>
</g>
<!-- [s0,0]&#45;&gt;[s0,0] -->
<g id="edge3" class="edge"><title>[s0,0]&#45;&gt;[s0,0]</title>
<path fill="none" stroke="black" d="M210.509,-321.221C221.864,-321.664 231.394,-319.055 231.394,-313.394 231.394,-309.592 227.092,-307.166 220.825,-306.118"/>
<polygon fill="black" stroke="black" points="220.681,-302.605 210.509,-305.568 220.308,-309.595 220.681,-302.605"/>
<text text-anchor="middle" x="251.394" y="-309.694" font-family="Times,serif" font-size="14.00">wait,s0</text>
</g>
</g>
</svg>
