<?xml version="1.0" encoding="UTF-8" standalone="no"?>
<!DOCTYPE svg PUBLIC "-//W3C//DTD SVG 1.1//EN"
 "http://www.w3.org/Graphics/SVG/1.1/DTD/svg11.dtd">
<!-- Generated by graphviz version 2.38.0 (20140413.2041)
 -->
<!-- Title: %3 Pages: 1 -->
<svg width="345pt" height="299pt"
 viewBox="0.00 0.00 345.00 299.00" xmlns="http://www.w3.org/2000/svg" xmlns:xlink="http://www.w3.org/1999/xlink">
<g id="graph0" class="graph" transform="scale(1 1) rotate(0) translate(4 295)">
<title>%3</title>
<polygon fill="white" stroke="none" points="-4,4 -4,-295 341,-295 341,4 -4,4"/>
<!-- fake -->
<g id="node1" class="node"><title>fake</title>
</g>
<!-- 0 -->
<g id="node2" class="node"><title>0</title>
<ellipse fill="none" stroke="black" cx="86" cy="-200" rx="27" ry="18"/>
<text text-anchor="middle" x="86" y="-196.3" font-family="Times,serif" font-size="14.00">0</text>
</g>
<!-- fake&#45;&gt;0 -->
<g id="edge1" class="edge"><title>fake&#45;&gt;0</title>
<path fill="none" stroke="black" stroke-width="2" d="M86,-254.813C86,-246.789 86,-237.047 86,-228.069"/>
<polygon fill="black" stroke="black" stroke-width="2" points="89.5001,-228.029 86,-218.029 82.5001,-228.029 89.5001,-228.029"/>
</g>
<!-- 0&#45;&gt;0 -->
<g id="edge4" class="edge"><title>0&#45;&gt;0</title>
<path fill="none" stroke="black" d="M111.443,-206.691C122.028,-207.152 131,-204.922 131,-200 131,-196.77 127.136,-194.699 121.488,-193.788"/>
<polygon fill="black" stroke="black" points="121.599,-190.289 111.443,-193.309 121.266,-197.281 121.599,-190.289"/>
<text text-anchor="middle" x="152.5" y="-196.3" font-family="Times,serif" font-size="11.00">~vs_w1</text>
</g>
<!-- 1 -->
<g id="node3" class="node"><title>1</title>
<ellipse fill="none" stroke="black" cx="27" cy="-113" rx="27" ry="18"/>
<text text-anchor="middle" x="27" y="-109.3" font-family="Times,serif" font-size="14.00">1</text>
</g>
<!-- 0&#45;&gt;1 -->
<g id="edge8" class="edge"><title>0&#45;&gt;1</title>
<path fill="none" stroke="black" d="M61.6143,-191.995C47.9632,-186.686 32.1016,-177.877 24,-164 19.9759,-157.107 19.2228,-148.73 19.9126,-140.819"/>
<polygon fill="black" stroke="black" points="23.3837,-141.276 21.4967,-130.851 16.4705,-140.178 23.3837,-141.276"/>
<text text-anchor="middle" x="42" y="-152.8" font-family="Times,serif" font-size="11.00">vs_w1</text>
</g>
<!-- 1&#45;&gt;0 -->
<g id="edge7" class="edge"><title>1&#45;&gt;0</title>
<path fill="none" stroke="black" d="M43.9098,-127.409C50.7783,-133.469 58.3975,-141.049 64,-149 68.9932,-156.086 73.2255,-164.486 76.6036,-172.359"/>
<polygon fill="black" stroke="black" points="73.4589,-173.922 80.4188,-181.91 79.9595,-171.325 73.4589,-173.922"/>
<text text-anchor="middle" x="149.5" y="-152.8" font-family="Times,serif" font-size="11.00">~vs_w1 &amp; (~at_h | ~vs_w2)</text>
</g>
<!-- 1&#45;&gt;1 -->
<g id="edge6" class="edge"><title>1&#45;&gt;1</title>
<path fill="none" stroke="black" d="M51.5325,-120.752C62.5078,-121.49 72,-118.906 72,-113 72,-109.032 67.7151,-106.563 61.5743,-105.594"/>
<polygon fill="black" stroke="black" points="61.6472,-102.095 51.5325,-105.248 61.4059,-109.091 61.6472,-102.095"/>
<text text-anchor="middle" x="146" y="-109.3" font-family="Times,serif" font-size="11.00">vs_w1 &amp; (~at_h | ~vs_w2)</text>
</g>
<!-- 2 -->
<g id="node4" class="node"><title>2</title>
<ellipse fill="none" stroke="black" cx="128" cy="-22" rx="18" ry="18"/>
<ellipse fill="none" stroke="black" cx="128" cy="-22" rx="22" ry="22"/>
<text text-anchor="middle" x="128" y="-18.3" font-family="Times,serif" font-size="11.00">2</text>
</g>
<!-- 1&#45;&gt;2 -->
<g id="edge5" class="edge"><title>1&#45;&gt;2</title>
<path fill="none" stroke="black" d="M21.0831,-95.2822C18.4957,-84.8282 17.3626,-71.5778 24,-62 39.9783,-38.9434 71.3799,-29.4972 95.5166,-25.6383"/>
<polygon fill="black" stroke="black" points="96.2393,-29.0726 105.681,-24.2663 95.3028,-22.1355 96.2393,-29.0726"/>
<text text-anchor="middle" x="63" y="-65.8" font-family="Times,serif" font-size="11.00">at_h &amp; vs_w2</text>
</g>
<!-- 2&#45;&gt;0 -->
<g id="edge2" class="edge"><title>2&#45;&gt;0</title>
<path fill="none" stroke="black" d="M148.52,-30.5673C164.721,-37.2053 187.302,-47.9842 204,-62 239.919,-92.1491 260.01,-127.155 231,-164 217.785,-180.785 161.376,-190.472 122.938,-195.239"/>
<polygon fill="black" stroke="black" points="122.146,-191.808 112.624,-196.454 122.965,-198.76 122.146,-191.808"/>
<text text-anchor="middle" x="290.5" y="-109.3" font-family="Times,serif" font-size="11.00">~at_h &amp; ~vs_w1</text>
</g>
<!-- 2&#45;&gt;1 -->
<g id="edge3" class="edge"><title>2&#45;&gt;1</title>
<path fill="none" stroke="black" d="M123.536,-43.8148C120.263,-54.8309 114.812,-67.9183 106,-77 94.089,-89.2759 77.116,-97.5598 61.9533,-102.972"/>
<polygon fill="black" stroke="black" points="60.7353,-99.6884 52.322,-106.128 62.9147,-106.34 60.7353,-99.6884"/>
<text text-anchor="middle" x="157.5" y="-65.8" font-family="Times,serif" font-size="11.00">vs_w1 &amp; ~at_h</text>
</g>
<!-- 2&#45;&gt;2 -->
<g id="edge9" class="edge"><title>2&#45;&gt;2</title>
<path fill="none" stroke="black" d="M148.581,-30.3702C158.845,-31.5284 168,-28.7383 168,-22 168,-17.6833 164.243,-14.9869 158.844,-13.9109"/>
<polygon fill="black" stroke="black" points="158.673,-10.405 148.581,-13.6298 158.481,-17.4024 158.673,-10.405"/>
<text text-anchor="middle" x="180" y="-18.3" font-family="Times,serif" font-size="11.00">at_h</text>
</g>
</g>
</svg>
