<?xml version="1.0" encoding="UTF-8" standalone="no"?>
<!DOCTYPE svg PUBLIC "-//W3C//DTD SVG 1.1//EN"
 "http://www.w3.org/Graphics/SVG/1.1/DTD/svg11.dtd">
<!-- Generated by graphviz version 2.38.0 (20140413.2041)
 -->
<!-- Title: %3 Pages: 1 -->
<svg width="442pt" height="299pt"
 viewBox="0.00 0.00 442.00 299.00" xmlns="http://www.w3.org/2000/svg" xmlns:xlink="http://www.w3.org/1999/xlink">
<g id="graph0" class="graph" transform="scale(1 1) rotate(0) translate(4 295)">
<title>%3</title>
<polygon fill="white" stroke="none" points="-4,4 -4,-295 437.995,-295 437.995,4 -4,4"/>
<!-- fake -->
<g id="node1" class="node"><title>fake</title>
</g>
<!-- 0 -->
<g id="node2" class="node"><title>0</title>
<ellipse fill="none" stroke="black" cx="119.995" cy="-200" rx="27" ry="18"/>
<text text-anchor="middle" x="119.995" y="-196.3" font-family="Times,serif" font-size="14.00">0</text>
</g>
<!-- fake&#45;&gt;0 -->
<g id="edge1" class="edge"><title>fake&#45;&gt;0</title>
<path fill="none" stroke="black" stroke-width="2" d="M119.995,-254.813C119.995,-246.789 119.995,-237.047 119.995,-228.069"/>
<polygon fill="black" stroke="black" stroke-width="2" points="123.495,-228.029 119.995,-218.029 116.495,-228.029 123.495,-228.029"/>
</g>
<!-- 0&#45;&gt;0 -->
<g id="edge6" class="edge"><title>0&#45;&gt;0</title>
<path fill="none" stroke="black" d="M145.439,-206.691C156.023,-207.152 164.995,-204.922 164.995,-200 164.995,-196.77 161.131,-194.699 155.483,-193.788"/>
<polygon fill="black" stroke="black" points="155.594,-190.289 145.439,-193.309 155.261,-197.281 155.594,-190.289"/>
<text text-anchor="middle" x="213.495" y="-196.3" font-family="Times,serif" font-size="14.00">~vs_w1 | ~vs_w2</text>
</g>
<!-- 1 -->
<g id="node3" class="node"><title>1</title>
<ellipse fill="none" stroke="black" cx="69.9952" cy="-113" rx="27" ry="18"/>
<text text-anchor="middle" x="69.9952" y="-109.3" font-family="Times,serif" font-size="14.00">1</text>
</g>
<!-- 0&#45;&gt;1 -->
<g id="edge9" class="edge"><title>0&#45;&gt;1</title>
<path fill="none" stroke="black" d="M92.7803,-199.374C65.3704,-198.106 24.3156,-191.356 3.99524,-164 -8.32513,-147.414 13.9937,-133.691 35.9392,-124.845"/>
<polygon fill="black" stroke="black" points="37.4087,-128.032 45.5438,-121.244 34.9516,-121.477 37.4087,-128.032"/>
<text text-anchor="middle" x="48.9952" y="-152.8" font-family="Times,serif" font-size="14.00">vs_w1 &amp; vs_w2</text>
</g>
<!-- 1&#45;&gt;0 -->
<g id="edge2" class="edge"><title>1&#45;&gt;0</title>
<path fill="none" stroke="black" d="M83.4521,-129.043C88.3951,-135.004 93.8024,-142.078 97.9952,-149 102.486,-156.415 106.575,-164.909 109.976,-172.766"/>
<polygon fill="black" stroke="black" points="106.841,-174.344 113.895,-182.249 113.311,-171.671 106.841,-174.344"/>
<text text-anchor="middle" x="182.495" y="-152.8" font-family="Times,serif" font-size="14.00">~at_h &amp; (~vs_w1 | ~vs_w2)</text>
</g>
<!-- 1&#45;&gt;1 -->
<g id="edge8" class="edge"><title>1&#45;&gt;1</title>
<path fill="none" stroke="black" d="M94.5277,-120.752C105.503,-121.49 114.995,-118.906 114.995,-113 114.995,-109.032 110.71,-106.563 104.57,-105.594"/>
<polygon fill="black" stroke="black" points="104.642,-102.095 94.5277,-105.248 104.401,-109.091 104.642,-102.095"/>
<text text-anchor="middle" x="184.495" y="-109.3" font-family="Times,serif" font-size="14.00">vs_w1 &amp; vs_w2 &amp; ~at_h</text>
</g>
<!-- 2 -->
<g id="node4" class="node"><title>2</title>
<ellipse fill="none" stroke="black" cx="116.995" cy="-22" rx="18" ry="18"/>
<ellipse fill="none" stroke="black" cx="116.995" cy="-22" rx="22" ry="22"/>
<text text-anchor="middle" x="116.995" y="-18.3" font-family="Times,serif" font-size="14.00">2</text>
</g>
<!-- 1&#45;&gt;2 -->
<g id="edge7" class="edge"><title>1&#45;&gt;2</title>
<path fill="none" stroke="black" d="M64.9258,-94.9688C62.8865,-84.8938 62.0354,-72.1589 66.9952,-62 71.7407,-52.2803 80.2083,-44.2768 88.8421,-38.1038"/>
<polygon fill="black" stroke="black" points="90.92,-40.9276 97.3996,-32.5452 87.1069,-35.0573 90.92,-40.9276"/>
<text text-anchor="middle" x="78.9952" y="-65.8" font-family="Times,serif" font-size="14.00">at_h</text>
</g>
<!-- 2&#45;&gt;0 -->
<g id="edge3" class="edge"><title>2&#45;&gt;0</title>
<path fill="none" stroke="black" d="M139.289,-24.69C166.884,-27.8334 214.016,-36.7636 244.995,-62 280.747,-91.1245 292.493,-127.746 263.995,-164 250.915,-180.64 195.167,-190.348 156.999,-195.161"/>
<polygon fill="black" stroke="black" points="156.262,-191.724 146.75,-196.391 157.096,-198.675 156.262,-191.724"/>
<text text-anchor="middle" x="356.495" y="-109.3" font-family="Times,serif" font-size="14.00">~at_h &amp; (~vs_w1 | ~vs_w2)</text>
</g>
<!-- 2&#45;&gt;1 -->
<g id="edge4" class="edge"><title>2&#45;&gt;1</title>
<path fill="none" stroke="black" d="M110.121,-43.0057C106.231,-53.4117 100.955,-66.1828 94.9952,-77 92.8873,-80.8261 90.4372,-84.7313 87.9115,-88.4795"/>
<polygon fill="black" stroke="black" points="84.9227,-86.6442 82.0063,-96.8297 90.638,-90.686 84.9227,-86.6442"/>
<text text-anchor="middle" x="171.495" y="-65.8" font-family="Times,serif" font-size="14.00">vs_w1 &amp; vs_w2 &amp; ~at_h</text>
</g>
<!-- 2&#45;&gt;2 -->
<g id="edge5" class="edge"><title>2&#45;&gt;2</title>
<path fill="none" stroke="black" d="M137.576,-30.3702C147.84,-31.5284 156.995,-28.7383 156.995,-22 156.995,-17.6833 153.238,-14.9869 147.839,-13.9109"/>
<polygon fill="black" stroke="black" points="147.668,-10.405 137.576,-13.6298 147.476,-17.4024 147.668,-10.405"/>
<text text-anchor="middle" x="168.995" y="-18.3" font-family="Times,serif" font-size="14.00">at_h</text>
</g>
</g>
</svg>
