<?xml version="1.0" encoding="UTF-8" standalone="no"?>
<!DOCTYPE svg PUBLIC "-//W3C//DTD SVG 1.1//EN"
 "http://www.w3.org/Graphics/SVG/1.1/DTD/svg11.dtd">
<!-- Generated by graphviz version 2.38.0 (20140413.2041)
 -->
<!-- Title: %3 Pages: 1 -->
<svg width="414pt" height="504pt"
 viewBox="0.00 0.00 413.70 503.79" xmlns="http://www.w3.org/2000/svg" xmlns:xlink="http://www.w3.org/1999/xlink">
<g id="graph0" class="graph" transform="scale(1 1) rotate(0) translate(4 499.787)">
<title>%3</title>
<polygon fill="white" stroke="none" points="-4,4 -4,-499.787 409.697,-499.787 409.697,4 -4,4"/>
<!-- fake -->
<g id="node1" class="node"><title>fake</title>
</g>
<!-- s_init -->
<g id="node2" class="node"><title>s_init</title>
<ellipse fill="none" stroke="black" cx="168.848" cy="-404.787" rx="30.5947" ry="18"/>
<text text-anchor="middle" x="168.848" y="-401.087" font-family="Times,serif" font-size="14.00">s_init</text>
</g>
<!-- fake&#45;&gt;s_init -->
<g id="edge1" class="edge"><title>fake&#45;&gt;s_init</title>
<path fill="none" stroke="black" stroke-width="2" d="M168.848,-459.6C168.848,-451.576 168.848,-441.834 168.848,-432.856"/>
<polygon fill="black" stroke="black" stroke-width="2" points="172.348,-432.815 168.848,-422.815 165.348,-432.815 172.348,-432.815"/>
</g>
<!-- s0 -->
<g id="node7" class="node"><title>s0</title>
<ellipse fill="none" stroke="black" cx="168.848" cy="-312.938" rx="18.724" ry="18.724"/>
<ellipse fill="none" stroke="black" cx="168.848" cy="-312.938" rx="22.6977" ry="22.6977"/>
<text text-anchor="middle" x="168.848" y="-309.238" font-family="Times,serif" font-size="14.00">s0</text>
</g>
<!-- s_init&#45;&gt;s0 -->
<g id="edge5" class="edge"><title>s_init&#45;&gt;s0</title>
<path fill="none" stroke="black" d="M168.848,-386.463C168.848,-375.004 168.848,-359.633 168.848,-345.991"/>
<polygon fill="black" stroke="black" points="172.348,-345.99 168.848,-335.99 165.348,-345.99 172.348,-345.99"/>
<text text-anchor="middle" x="188.848" y="-357.587" font-family="Times,serif" font-size="14.00">start,s0</text>
</g>
<!-- s2 -->
<g id="node3" class="node"><title>s2</title>
<ellipse fill="none" stroke="black" cx="22.8483" cy="-119.545" rx="18.724" ry="18.724"/>
<ellipse fill="none" stroke="black" cx="22.8483" cy="-119.545" rx="22.6977" ry="22.6977"/>
<text text-anchor="middle" x="22.8483" y="-115.845" font-family="Times,serif" font-size="14.00">s2</text>
</g>
<!-- s2&#45;&gt;s2 -->
<g id="edge4" class="edge"><title>s2&#45;&gt;s2</title>
<path fill="none" stroke="black" d="M44.2843,-128.325C54.5949,-129.409 63.6967,-126.482 63.6967,-119.545 63.6967,-115.101 59.9613,-112.302 54.5657,-111.15"/>
<polygon fill="black" stroke="black" points="54.4083,-107.642 44.2843,-110.765 54.1461,-114.637 54.4083,-107.642"/>
<text text-anchor="middle" x="83.6967" y="-115.845" font-family="Times,serif" font-size="14.00">wait,s2</text>
</g>
<!-- s6 -->
<g id="node4" class="node"><title>s6</title>
<ellipse fill="none" stroke="black" cx="107.848" cy="-216.242" rx="18.724" ry="18.724"/>
<ellipse fill="none" stroke="black" cx="107.848" cy="-216.242" rx="22.6977" ry="22.6977"/>
<text text-anchor="middle" x="107.848" y="-212.542" font-family="Times,serif" font-size="14.00">s6</text>
</g>
<!-- s6&#45;&gt;s2 -->
<g id="edge15" class="edge"><title>s6&#45;&gt;s2</title>
<path fill="none" stroke="black" d="M85.9683,-209.096C69.1178,-203.212 46.6127,-192.631 33.8483,-175.393 28.9719,-168.808 26.115,-160.605 24.4761,-152.567"/>
<polygon fill="black" stroke="black" points="27.9276,-151.981 22.9913,-142.607 21.0041,-153.014 27.9276,-151.981"/>
<text text-anchor="middle" x="69.3483" y="-164.193" font-family="Times,serif" font-size="14.00">mov_w2h,s2</text>
</g>
<!-- s6&#45;&gt;s6 -->
<g id="edge16" class="edge"><title>s6&#45;&gt;s6</title>
<path fill="none" stroke="black" d="M129.284,-225.022C139.595,-226.106 148.697,-223.179 148.697,-216.242 148.697,-211.797 144.961,-208.999 139.566,-207.847"/>
<polygon fill="black" stroke="black" points="139.408,-204.338 129.284,-207.461 139.146,-211.333 139.408,-204.338"/>
<text text-anchor="middle" x="168.697" y="-212.542" font-family="Times,serif" font-size="14.00">wait,s6</text>
</g>
<!-- s3 -->
<g id="node6" class="node"><title>s3</title>
<ellipse fill="none" stroke="black" cx="173.848" cy="-119.545" rx="18.724" ry="18.724"/>
<ellipse fill="none" stroke="black" cx="173.848" cy="-119.545" rx="22.6977" ry="22.6977"/>
<text text-anchor="middle" x="173.848" y="-115.845" font-family="Times,serif" font-size="14.00">s3</text>
</g>
<!-- s6&#45;&gt;s3 -->
<g id="edge7" class="edge"><title>s6&#45;&gt;s3</title>
<path fill="none" stroke="black" d="M106.072,-193.296C106.209,-182.667 107.922,-170.131 113.848,-160.393 120.807,-148.961 132.435,-140.122 143.611,-133.707"/>
<polygon fill="black" stroke="black" points="145.559,-136.637 152.781,-128.885 142.301,-130.442 145.559,-136.637"/>
<text text-anchor="middle" x="154.348" y="-164.193" font-family="Times,serif" font-size="14.00">mov_w2w1,s3</text>
</g>
<!-- s4 -->
<g id="node5" class="node"><title>s4</title>
<ellipse fill="none" stroke="black" cx="173.848" cy="-22.8483" rx="18.724" ry="18.724"/>
<ellipse fill="none" stroke="black" cx="173.848" cy="-22.8483" rx="22.6977" ry="22.6977"/>
<text text-anchor="middle" x="173.848" y="-19.1483" font-family="Times,serif" font-size="14.00">s4</text>
</g>
<!-- s4&#45;&gt;s4 -->
<g id="edge9" class="edge"><title>s4&#45;&gt;s4</title>
<path fill="none" stroke="black" d="M195.284,-31.6286C205.595,-32.7126 214.697,-29.7858 214.697,-22.8483 214.697,-18.404 210.961,-15.6057 205.566,-14.4534"/>
<polygon fill="black" stroke="black" points="205.408,-10.9451 195.284,-14.0681 205.146,-17.9402 205.408,-10.9451"/>
<text text-anchor="middle" x="234.697" y="-19.1483" font-family="Times,serif" font-size="14.00">wait,s4</text>
</g>
<!-- s3&#45;&gt;s4 -->
<g id="edge2" class="edge"><title>s3&#45;&gt;s4</title>
<path fill="none" stroke="black" d="M173.848,-96.5816C173.848,-84.5964 173.848,-69.5302 173.848,-56.2231"/>
<polygon fill="black" stroke="black" points="177.348,-56.0206 173.848,-46.0206 170.348,-56.0206 177.348,-56.0206"/>
<text text-anchor="middle" x="212.848" y="-67.4967" font-family="Times,serif" font-size="14.00">mov_w12h,s4</text>
</g>
<!-- s3&#45;&gt;s3 -->
<g id="edge3" class="edge"><title>s3&#45;&gt;s3</title>
<path fill="none" stroke="black" d="M195.284,-128.325C205.595,-129.409 214.697,-126.482 214.697,-119.545 214.697,-115.101 210.961,-112.302 205.566,-111.15"/>
<polygon fill="black" stroke="black" points="205.408,-107.642 195.284,-110.765 205.146,-114.637 205.408,-107.642"/>
<text text-anchor="middle" x="234.697" y="-115.845" font-family="Times,serif" font-size="14.00">wait,s3</text>
</g>
<!-- s0&#45;&gt;s6 -->
<g id="edge10" class="edge"><title>s0&#45;&gt;s6</title>
<path fill="none" stroke="black" d="M149.371,-300.183C139.412,-293.208 127.929,-283.502 120.848,-272.09 116.531,-265.132 113.648,-256.863 111.721,-248.884"/>
<polygon fill="black" stroke="black" points="115.148,-248.172 109.758,-239.051 108.284,-249.543 115.148,-248.172"/>
<text text-anchor="middle" x="156.348" y="-260.89" font-family="Times,serif" font-size="14.00">mov_hw2,s6</text>
</g>
<!-- s0&#45;&gt;s0 -->
<g id="edge11" class="edge"><title>s0&#45;&gt;s0</title>
<path fill="none" stroke="black" d="M190.284,-321.719C200.595,-322.803 209.697,-319.876 209.697,-312.938 209.697,-308.494 205.961,-305.696 200.566,-304.543"/>
<polygon fill="black" stroke="black" points="200.408,-301.035 190.284,-304.158 200.146,-308.03 200.408,-301.035"/>
<text text-anchor="middle" x="229.697" y="-309.238" font-family="Times,serif" font-size="14.00">wait,s0</text>
</g>
<!-- s5 -->
<g id="node9" class="node"><title>s5</title>
<ellipse fill="none" stroke="black" cx="229.848" cy="-216.242" rx="18.724" ry="18.724"/>
<ellipse fill="none" stroke="black" cx="229.848" cy="-216.242" rx="22.6977" ry="22.6977"/>
<text text-anchor="middle" x="229.848" y="-212.542" font-family="Times,serif" font-size="14.00">s5</text>
</g>
<!-- s0&#45;&gt;s5 -->
<g id="edge6" class="edge"><title>s0&#45;&gt;s5</title>
<path fill="none" stroke="black" d="M180.9,-293.229C189.84,-279.351 202.166,-260.215 212.213,-244.619"/>
<polygon fill="black" stroke="black" points="215.349,-246.214 217.822,-235.912 209.464,-242.423 215.349,-246.214"/>
<text text-anchor="middle" x="239.348" y="-260.89" font-family="Times,serif" font-size="14.00">mov_hw1,s5</text>
</g>
<!-- s1 -->
<g id="node8" class="node"><title>s1</title>
<ellipse fill="none" stroke="black" cx="324.848" cy="-119.545" rx="18.724" ry="18.724"/>
<ellipse fill="none" stroke="black" cx="324.848" cy="-119.545" rx="22.6977" ry="22.6977"/>
<text text-anchor="middle" x="324.848" y="-115.845" font-family="Times,serif" font-size="14.00">s1</text>
</g>
<!-- s1&#45;&gt;s1 -->
<g id="edge14" class="edge"><title>s1&#45;&gt;s1</title>
<path fill="none" stroke="black" d="M346.284,-128.325C356.595,-129.409 365.697,-126.482 365.697,-119.545 365.697,-115.101 361.961,-112.302 356.566,-111.15"/>
<polygon fill="black" stroke="black" points="356.408,-107.642 346.284,-110.765 356.146,-114.637 356.408,-107.642"/>
<text text-anchor="middle" x="385.697" y="-115.845" font-family="Times,serif" font-size="14.00">wait,s1</text>
</g>
<!-- s5&#45;&gt;s3 -->
<g id="edge8" class="edge"><title>s5&#45;&gt;s3</title>
<path fill="none" stroke="black" d="M219.16,-195.826C213.281,-185.277 205.791,-172.045 198.848,-160.393 196.366,-156.228 193.691,-151.851 191.045,-147.585"/>
<polygon fill="black" stroke="black" points="193.999,-145.707 185.727,-139.087 188.065,-149.421 193.999,-145.707"/>
<text text-anchor="middle" x="248.348" y="-164.193" font-family="Times,serif" font-size="14.00">mov_w1w2,s3</text>
</g>
<!-- s5&#45;&gt;s1 -->
<g id="edge13" class="edge"><title>s5&#45;&gt;s1</title>
<path fill="none" stroke="black" d="M250.343,-205.533C263.611,-198.515 280.628,-188.06 292.848,-175.393 300.006,-167.974 306.205,-158.656 311.19,-149.817"/>
<polygon fill="black" stroke="black" points="314.338,-151.352 315.935,-140.878 308.155,-148.07 314.338,-151.352"/>
<text text-anchor="middle" x="340.348" y="-164.193" font-family="Times,serif" font-size="14.00">mov_w1h,s1</text>
</g>
<!-- s5&#45;&gt;s5 -->
<g id="edge12" class="edge"><title>s5&#45;&gt;s5</title>
<path fill="none" stroke="black" d="M251.284,-225.022C261.595,-226.106 270.697,-223.179 270.697,-216.242 270.697,-211.797 266.961,-208.999 261.566,-207.847"/>
<polygon fill="black" stroke="black" points="261.408,-204.338 251.284,-207.461 261.146,-211.333 261.408,-204.338"/>
<text text-anchor="middle" x="290.697" y="-212.542" font-family="Times,serif" font-size="14.00">wait,s5</text>
</g>
</g>
</svg>
